Coordinates
version=1
nRows=12
nColumns=24
inDegrees=yes

Units are S.I. units (second, meters, Newtons, ...)
Angles are in degrees.

endheader
time	pelvis_tilt	pelvis_list	pelvis_rotation	pelvis_tx	pelvis_ty	pelvis_tz	hip_flexion_r	hip_adduction_r	hip_rotation_r	knee_angle_r	ankle_angle_r	subtalar_angle_r	mtp_angle_r	hip_flexion_l	hip_adduction_l	hip_rotation_l	knee_angle_l	ankle_angle_l	subtalar_angle_l	mtp_angle_l	lumbar_extension	lumbar_bending	lumbar_rotation
      1.15383333	     -6.03604115	      1.89346980	     -4.24400329	      0.17199945	      1.04432082	      0.28619519	     19.36253818	     -5.09054572	     -4.41132220	    -72.79313795	      2.87426697	     -5.37273587	      6.75808271	     22.38110026	      0.86360706	     -1.18939587	    -29.20398530	     17.23498379	      3.91204553	      0.87657948	     -3.91696630	     -1.39373335	      1.16285138
      1.15800000	     -6.02638963	      1.77183338	     -4.33574622	      0.17735558	      1.04581962	      0.28635283	     19.97264389	     -4.86703626	     -4.48545312	    -72.90384280	      3.20741371	     -5.29802169	      6.70407763	     21.80098458	      0.73616367	     -1.22896369	    -28.74273131	     17.26841116	      3.90255074	      0.87198905	     -3.95663859	     -1.27114706	      1.09279012
      1.16216667	     -6.02299778	      1.68629672	     -4.41097327	      0.18276390	      1.04730995	      0.28648010	     20.57611509	     -4.69533839	     -4.58065968	    -72.94692301	      3.56208367	     -5.06395683	      6.61299293	     21.20626091	      0.65907310	     -1.24155581	    -28.22773602	     17.28883867	      3.88138826	      0.86415201	     -3.95927893	     -1.18726187	      0.98406225
      1.16633333	     -6.01435986	      1.56607749	     -4.49865859	      0.18812255	      1.04880766	      0.28666352	     21.16069627	     -4.46471709	     -4.66337967	    -72.90272785	      3.91294208	     -4.85395157	      6.57490030	     20.61306292	      0.53232319	     -1.29118309	    -27.73030299	     17.28422011	      3.87505026	      0.85873544	     -3.99376117	     -1.05784312	      0.91577260
      1.17050000	     -6.00066361	      1.46617188	     -4.57300065	      0.19349882	      1.05027634	      0.28683173	     21.72698431	     -4.26338020	     -4.76145805	    -72.79517973	      4.28675307	     -4.53434664	      6.54269350	     20.00532143	      0.43533437	     -1.32539896	    -27.20764760	     17.28373761	      3.87035983	      0.85346932	     -4.02516235	     -0.95444336	      0.82897206
      1.17466667	     -5.96622618	      1.36342525	     -4.63164809	      0.19888297	      1.05177692	      0.28697695	     22.24994124	     -4.06787336	     -4.88336429	    -72.60733346	      4.65674809	     -4.15943196	      6.50697452	     19.36760464	      0.34520824	     -1.33356099	    -26.66469663	     17.28810738	      3.85948937	      0.84740595	     -4.07371838	     -0.84848395	      0.72404489
      1.17883333	     -5.93653158	      1.24094079	     -4.70432847	      0.20423694	      1.05326656	      0.28718292	     22.76405295	     -3.82931296	     -4.98438657	    -72.33940025	      5.02052469	     -3.79718591	      6.49486678	     18.73751671	      0.22136049	     -1.37869053	    -26.12720678	     17.24461295	      3.85583703	      0.84190614	     -4.13893270	     -0.71935231	      0.64625086
      1.18300000	     -5.87967397	      1.14370047	     -4.75549458	      0.20962029	      1.05476527	      0.28733680	     23.23238654	     -3.63949077	     -5.11573666	    -72.01022812	      5.39910699	     -3.35514567	      6.48348110	     18.06554592	      0.14174938	     -1.38545928	    -25.55613392	     17.23268746	      3.83652908	      0.83642553	     -4.21387739	     -0.62167908	      0.53797898
      1.18716667	     -5.82539244	      1.03188531	     -4.80891190	      0.21498265	      1.05623223	      0.28751564	     23.68679685	     -3.42449332	     -5.24206237	    -71.60731313	      5.76352943	     -2.92109258	      6.48469124	     17.40049925	      0.04080924	     -1.40879162	    -24.99210029	     17.19593580	      3.82258063	      0.83133292	     -4.30154273	     -0.50375694	      0.44520413
      1.19133333	     -5.75882724	      0.91632759	     -4.85698324	      0.22034517	      1.05768808	      0.28769327	     24.11000199	     -3.20632364	     -5.37471802	    -71.13531343	      6.12148405	     -2.47955662	      6.49668041	     16.72027266	     -0.06176166	     -1.43123966	    -24.42138854	     17.15660387	      3.81765010	      0.82704102	     -4.40075892	     -0.38174358	      0.35113685
      1.19550000	     -5.69356052	      0.79602518	     -4.89996193	      0.22569838	      1.05909119	      0.28787383	     24.51853841	     -2.98358555	     -5.51461535	    -70.60007862	      6.46970240	     -2.03777985	      6.51834853	     16.04379431	     -0.16964888	     -1.45422256	    -23.85311821	     17.11728332	      3.81654499	      0.82376498	     -4.50418216	     -0.25498114	      0.25715986
      1.19966667	     -5.62377928	      0.68479749	     -4.93811638	      0.23105235	      1.06046280	      0.28804857	     24.90755028	     -2.77266064	     -5.65616232	    -70.00520235	      6.81093669	     -1.59846950	      6.54777092	     15.36074916	     -0.26547254	     -1.47618908	    -23.27591101	     17.07102084	      3.80843569	      0.82107799	     -4.60994546	     -0.13714284	      0.16178434
